<svg width="250" height="250" viewBox="0 0 250 250" fill="none" xmlns="http://www.w3.org/2000/svg">
<rect width="250" height="250" fill="#223E72"/>
<path d="M56.927 83.1318C59.7873 83.1318 61.8963 81.1283 61.8963 78.3866C61.8963 75.6449 59.7873 73.6414 56.927 73.6414C54.0667 73.6414 51.9577 75.6581 51.9577 78.3866C51.9577 81.1151 54.0667 83.1318 56.927 83.1318ZM56.927 81.6292C55.0684 81.6292 53.6844 80.2715 53.6844 78.3866C53.6844 76.5017 55.0684 75.144 56.927 75.144C58.7855 75.144 60.1696 76.5017 60.1696 78.3866C60.1696 80.2715 58.7855 81.6292 56.927 81.6292ZM71.7663 75.2099V73.7732H65.0307V83H66.7443V79.4674H71.1995V78.0175H66.7443V75.2099H71.7663ZM81.4771 75.2099V73.7732H74.7416V83H76.4551V79.4674H80.9104V78.0175H76.4551V75.2099H81.4771ZM84.4524 83H86.1659V73.7732H84.4524V83ZM94.2504 83.1318C95.7663 83.1318 97.058 82.5914 97.9148 81.5896L96.8076 80.5351C96.1354 81.2733 95.3049 81.6292 94.3427 81.6292C92.4314 81.6292 91.0474 80.2847 91.0474 78.3866C91.0474 76.4885 92.4314 75.144 94.3427 75.144C95.3049 75.144 96.1354 75.4999 96.8076 76.2249L97.9148 75.1836C97.058 74.1818 95.7663 73.6414 94.2636 73.6414C91.4297 73.6414 89.3207 75.6317 89.3207 78.3866C89.3207 81.1415 91.4297 83.1318 94.2504 83.1318ZM100.875 83H102.588V73.7732H100.875V83ZM113.309 83H115.102L110.936 73.7732H109.249L105.097 83H106.864L107.773 80.8646H112.386L113.309 83ZM108.353 79.5202L110.08 75.4867L111.82 79.5202H108.353ZM117.593 83H124.131V81.5501H119.307V73.7732H117.593V83ZM141.86 83L141.847 73.7732H140.436L136.838 79.8892L133.173 73.7732H131.763V83H133.398V76.963L136.429 81.9455H137.194L140.225 76.8839L140.239 83H141.86ZM147.384 81.5633V79.0193H151.839V77.6089H147.384V75.2099H152.406V73.7732H145.67V83H152.59V81.5633H147.384ZM165.916 83L165.902 73.7732H164.492L160.893 79.8892L157.229 73.7732H155.819V83H157.453V76.963L160.485 81.9455H161.249L164.281 76.8839L164.294 83H165.916ZM176.264 78.202C176.976 77.8198 177.45 77.1212 177.45 76.1721C177.45 74.709 176.264 73.7732 174.049 73.7732H169.726V83H174.313C176.686 83 177.925 82.0773 177.925 80.4956C177.925 79.2961 177.252 78.5184 176.264 78.202ZM173.865 75.1176C175.051 75.1176 175.723 75.5394 175.723 76.3962C175.723 77.2398 175.051 77.6616 173.865 77.6616H171.439V75.1176H173.865ZM174.208 81.6555H171.439V78.9929H174.208C175.499 78.9929 176.198 79.4015 176.198 80.3242C176.198 81.2469 175.499 81.6555 174.208 81.6555ZM182.785 81.5633V79.0193H187.24V77.6089H182.785V75.2099H187.807V73.7732H181.072V83H187.992V81.5633H182.785ZM199.102 83L196.98 79.9683C198.232 79.4806 198.944 78.4525 198.944 77.0553C198.944 75.0122 197.442 73.7732 195.016 73.7732H191.22V83H192.934V80.311H195.016C195.135 80.311 195.253 80.311 195.372 80.2979L197.257 83H199.102ZM197.217 77.0553C197.217 78.2152 196.44 78.9007 194.937 78.9007H192.934V75.2231H194.937C196.44 75.2231 197.217 75.8953 197.217 77.0553Z" fill="white"/>
<rect x="91.2581" y="49" width="2" height="40.2581" transform="rotate(90 91.2581 49)" fill="#324C7B"/>
<path d="M114.269 53.9492V56H104.648V54.378L109.831 49.4561C110.415 48.8968 110.807 48.412 111.006 48.0019C111.217 47.5793 111.323 47.1629 111.323 46.7527C111.323 46.1437 111.118 45.6776 110.708 45.3545C110.297 45.0313 109.695 44.8697 108.899 44.8697C107.569 44.8697 106.55 45.3234 105.842 46.2307L104.145 44.9257C104.655 44.2421 105.338 43.7138 106.196 43.341C107.066 42.9556 108.035 42.763 109.104 42.763C110.521 42.763 111.652 43.0986 112.497 43.7698C113.343 44.4409 113.765 45.3545 113.765 46.5104C113.765 47.2188 113.616 47.8838 113.318 48.5052C113.019 49.1267 112.448 49.8352 111.602 50.6306L108.116 53.9492H114.269ZM121.057 56.1864C120.013 56.1864 119.08 55.9254 118.26 55.4034C117.44 54.869 116.794 54.0983 116.321 53.0916C115.849 52.0724 115.613 50.8668 115.613 49.4747C115.613 48.0827 115.849 46.8832 116.321 45.8765C116.794 44.8573 117.44 44.0867 118.26 43.5647C119.08 43.0302 120.013 42.763 121.057 42.763C122.101 42.763 123.033 43.0302 123.853 43.5647C124.686 44.0867 125.339 44.8573 125.811 45.8765C126.283 46.8832 126.519 48.0827 126.519 49.4747C126.519 50.8668 126.283 52.0724 125.811 53.0916C125.339 54.0983 124.686 54.869 123.853 55.4034C123.033 55.9254 122.101 56.1864 121.057 56.1864ZM121.057 54.0797C121.989 54.0797 122.722 53.6944 123.257 52.9238C123.804 52.1532 124.077 51.0035 124.077 49.4747C124.077 47.9459 123.804 46.7962 123.257 46.0256C122.722 45.255 121.989 44.8697 121.057 44.8697C120.137 44.8697 119.404 45.255 118.857 46.0256C118.322 46.7962 118.055 47.9459 118.055 49.4747C118.055 51.0035 118.322 52.1532 118.857 52.9238C119.404 53.6944 120.137 54.0797 121.057 54.0797ZM137.518 53.9492V56H127.898V54.378L133.081 49.4561C133.665 48.8968 134.057 48.412 134.256 48.0019C134.467 47.5793 134.573 47.1629 134.573 46.7527C134.573 46.1437 134.368 45.6776 133.958 45.3545C133.547 45.0313 132.945 44.8697 132.149 44.8697C130.819 44.8697 129.8 45.3234 129.092 46.2307L127.395 44.9257C127.905 44.2421 128.588 43.7138 129.446 43.341C130.316 42.9556 131.285 42.763 132.354 42.763C133.771 42.763 134.902 43.0986 135.747 43.7698C136.593 44.4409 137.015 45.3545 137.015 46.5104C137.015 47.2188 136.866 47.8838 136.568 48.5052C136.269 49.1267 135.698 49.8352 134.852 50.6306L131.366 53.9492H137.518ZM143.429 42.9494V56H141.005V44.9816H138.246V42.9494H143.429Z" fill="white"/>
<rect x="198.193" y="49" width="2" height="40.2581" transform="rotate(90 198.193 49)" fill="#324C7B"/>
<path d="M87.2154 176.495H85.8844V166.231H82.2596V165.048H90.8402V166.231H87.2154V176.495Z" fill="white"/>
<path d="M95.4384 176.651C94.1701 176.651 93.1679 176.265 92.432 175.492C91.7013 174.72 91.3359 173.647 91.3359 172.275C91.3359 170.892 91.6752 169.793 92.3537 168.979C93.0375 168.164 93.9535 167.757 95.1017 167.757C96.1769 167.757 97.0277 168.112 97.654 168.822C98.2803 169.527 98.5935 170.458 98.5935 171.617V172.439H92.6825C92.7086 173.446 92.9618 174.211 93.442 174.733C93.9274 175.255 94.6085 175.516 95.4853 175.516C96.4092 175.516 97.3226 175.323 98.2255 174.937V176.095C97.7662 176.294 97.3304 176.434 96.9181 176.518C96.511 176.607 96.0177 176.651 95.4384 176.651ZM95.0861 168.846C94.3971 168.846 93.8465 169.07 93.4341 169.519C93.027 169.968 92.7869 170.589 92.7139 171.382H97.1999C97.1999 170.563 97.0172 169.936 96.6519 169.503C96.2865 169.065 95.7646 168.846 95.0861 168.846Z" fill="white"/>
<path d="M103.685 176.651C102.443 176.651 101.48 176.27 100.796 175.508C100.117 174.741 99.7782 173.658 99.7782 172.259C99.7782 170.824 100.123 169.715 100.812 168.932C101.506 168.149 102.492 167.757 103.771 167.757C104.183 167.757 104.596 167.802 105.008 167.89C105.42 167.979 105.744 168.083 105.979 168.204L105.579 169.307C105.292 169.193 104.979 169.099 104.64 169.026C104.301 168.947 104.001 168.908 103.74 168.908C101.996 168.908 101.125 170.02 101.125 172.243C101.125 173.298 101.336 174.107 101.759 174.67C102.187 175.234 102.818 175.516 103.654 175.516C104.369 175.516 105.102 175.362 105.854 175.054V176.205C105.279 176.502 104.557 176.651 103.685 176.651Z" fill="white"/>
<path d="M113.208 176.495V170.944C113.208 170.244 113.048 169.722 112.73 169.378C112.412 169.033 111.913 168.861 111.235 168.861C110.332 168.861 109.671 169.106 109.254 169.597C108.841 170.088 108.635 170.892 108.635 172.008V176.495H107.336V164.312H108.635V168C108.635 168.444 108.614 168.812 108.573 169.104H108.651C108.907 168.692 109.269 168.368 109.739 168.133C110.214 167.893 110.754 167.773 111.36 167.773C112.409 167.773 113.194 168.023 113.716 168.525C114.244 169.02 114.507 169.811 114.507 170.897V176.495H113.208Z" fill="white"/>
<path d="M122.495 176.495V170.944C122.495 170.244 122.336 169.722 122.018 169.378C121.699 169.033 121.201 168.861 120.522 168.861C119.625 168.861 118.967 169.104 118.549 169.589C118.132 170.075 117.923 170.876 117.923 171.993V176.495H116.623V167.914H117.68L117.892 169.088H117.954C118.221 168.665 118.594 168.339 119.074 168.11C119.554 167.875 120.089 167.757 120.679 167.757C121.712 167.757 122.49 168.008 123.012 168.509C123.534 169.005 123.795 169.801 123.795 170.897V176.495H122.495Z" fill="white"/>
<path d="M133.318 172.196C133.318 173.595 132.965 174.689 132.261 175.477C131.556 176.26 130.583 176.651 129.34 176.651C128.573 176.651 127.892 176.471 127.297 176.111C126.702 175.751 126.243 175.234 125.919 174.561C125.595 173.887 125.434 173.099 125.434 172.196C125.434 170.798 125.783 169.709 126.483 168.932C127.182 168.149 128.153 167.757 129.395 167.757C130.596 167.757 131.548 168.157 132.253 168.955C132.963 169.754 133.318 170.834 133.318 172.196ZM126.78 172.196C126.78 173.292 126.999 174.128 127.438 174.702C127.876 175.276 128.521 175.563 129.372 175.563C130.222 175.563 130.867 175.278 131.305 174.709C131.749 174.135 131.971 173.298 131.971 172.196C131.971 171.106 131.749 170.278 131.305 169.715C130.867 169.146 130.217 168.861 129.356 168.861C128.505 168.861 127.863 169.14 127.43 169.699C126.997 170.257 126.78 171.09 126.78 172.196Z" fill="white"/>
<path d="M136.342 176.495H135.042V164.312H136.342V176.495Z" fill="white"/>
<path d="M145.943 172.196C145.943 173.595 145.591 174.689 144.886 175.477C144.181 176.26 143.208 176.651 141.966 176.651C141.199 176.651 140.517 176.471 139.922 176.111C139.327 175.751 138.868 175.234 138.545 174.561C138.221 173.887 138.059 173.099 138.059 172.196C138.059 170.798 138.409 169.709 139.108 168.932C139.808 168.149 140.778 167.757 142.021 167.757C143.221 167.757 144.174 168.157 144.878 168.955C145.588 169.754 145.943 170.834 145.943 172.196ZM139.406 172.196C139.406 173.292 139.625 174.128 140.063 174.702C140.502 175.276 141.146 175.563 141.997 175.563C142.848 175.563 143.492 175.278 143.931 174.709C144.375 174.135 144.596 173.298 144.596 172.196C144.596 171.106 144.375 170.278 143.931 169.715C143.492 169.146 142.843 168.861 141.981 168.861C141.131 168.861 140.489 169.14 140.056 169.699C139.622 170.257 139.406 171.09 139.406 172.196Z" fill="white"/>
<path d="M154.691 167.914V168.736L153.101 168.924C153.247 169.106 153.378 169.347 153.493 169.644C153.608 169.936 153.665 170.268 153.665 170.638C153.665 171.479 153.378 172.149 152.804 172.65C152.23 173.152 151.441 173.402 150.439 173.402C150.184 173.402 149.944 173.381 149.719 173.339C149.166 173.632 148.889 174 148.889 174.443C148.889 174.678 148.986 174.853 149.179 174.968C149.372 175.077 149.703 175.132 150.173 175.132H151.692C152.621 175.132 153.333 175.328 153.829 175.719C154.33 176.111 154.581 176.68 154.581 177.426C154.581 178.376 154.2 179.099 153.438 179.595C152.676 180.096 151.564 180.346 150.103 180.346C148.981 180.346 148.114 180.138 147.503 179.72C146.898 179.303 146.595 178.713 146.595 177.951C146.595 177.429 146.762 176.977 147.096 176.596C147.43 176.215 147.9 175.957 148.506 175.821C148.286 175.722 148.101 175.568 147.95 175.359C147.804 175.151 147.73 174.908 147.73 174.631C147.73 174.318 147.814 174.044 147.981 173.809C148.148 173.574 148.412 173.347 148.772 173.128C148.328 172.945 147.965 172.635 147.684 172.196C147.407 171.758 147.269 171.257 147.269 170.693C147.269 169.754 147.55 169.031 148.114 168.525C148.678 168.013 149.476 167.757 150.51 167.757C150.959 167.757 151.363 167.809 151.723 167.914H154.691ZM147.848 177.935C147.848 178.4 148.044 178.752 148.435 178.992C148.827 179.232 149.388 179.352 150.118 179.352C151.209 179.352 152.016 179.188 152.538 178.859C153.065 178.535 153.328 178.094 153.328 177.536C153.328 177.071 153.185 176.748 152.898 176.565C152.611 176.388 152.07 176.299 151.277 176.299H149.719C149.129 176.299 148.67 176.44 148.341 176.722C148.012 177.003 147.848 177.408 147.848 177.935ZM148.553 170.662C148.553 171.262 148.722 171.716 149.061 172.024C149.401 172.332 149.873 172.486 150.478 172.486C151.747 172.486 152.381 171.87 152.381 170.638C152.381 169.349 151.739 168.705 150.455 168.705C149.844 168.705 149.375 168.869 149.046 169.198C148.717 169.527 148.553 170.015 148.553 170.662Z" fill="white"/>
<path d="M154.529 167.914H155.922L157.801 172.807C158.213 173.924 158.469 174.73 158.568 175.226H158.631C158.699 174.96 158.84 174.506 159.054 173.864C159.273 173.217 159.983 171.233 161.183 167.914H162.577L158.889 177.685C158.524 178.65 158.096 179.334 157.605 179.736C157.12 180.143 156.522 180.346 155.813 180.346C155.416 180.346 155.024 180.302 154.638 180.213V179.172C154.925 179.235 155.246 179.266 155.601 179.266C156.494 179.266 157.13 178.765 157.511 177.763L157.989 176.541L154.529 167.914Z" fill="white"/>
<path d="M88.5933 185.464C87.3354 185.464 86.3411 185.884 85.6104 186.724C84.8849 187.559 84.5222 188.705 84.5222 190.161C84.5222 191.659 84.8719 192.818 85.5713 193.637C86.2759 194.452 87.278 194.859 88.5776 194.859C89.3762 194.859 90.287 194.715 91.31 194.428V195.595C90.5166 195.892 89.538 196.041 88.3741 196.041C86.6882 196.041 85.386 195.529 84.4674 194.506C83.554 193.483 83.0973 192.03 83.0973 190.146C83.0973 188.966 83.3165 187.933 83.7549 187.045C84.1986 186.158 84.8353 185.474 85.6652 184.994C86.5003 184.514 87.4815 184.274 88.6089 184.274C89.8094 184.274 90.8585 184.493 91.7562 184.931L91.1925 186.075C90.3261 185.667 89.4597 185.464 88.5933 185.464Z" fill="white"/>
<path d="M100.457 191.586C100.457 192.985 100.104 194.078 99.3999 194.867C98.6953 195.649 97.7218 196.041 96.4796 196.041C95.7124 196.041 95.0313 195.861 94.4363 195.501C93.8412 195.141 93.3819 194.624 93.0583 193.951C92.7347 193.277 92.5729 192.489 92.5729 191.586C92.5729 190.187 92.9226 189.099 93.622 188.321C94.3214 187.539 95.2922 187.147 96.5344 187.147C97.7349 187.147 98.6874 187.546 99.392 188.345C100.102 189.144 100.457 190.224 100.457 191.586ZM93.9195 191.586C93.9195 192.682 94.1387 193.517 94.5772 194.091C95.0156 194.666 95.6602 194.953 96.511 194.953C97.3617 194.953 98.0063 194.668 98.4447 194.099C98.8884 193.525 99.1102 192.687 99.1102 191.586C99.1102 190.495 98.8884 189.668 98.4447 189.104C98.0063 188.535 97.3565 188.251 96.4953 188.251C95.6445 188.251 95.0026 188.53 94.5693 189.089C94.1361 189.647 93.9195 190.48 93.9195 191.586Z" fill="white"/>
<path d="M103.403 187.304V192.87C103.403 193.57 103.562 194.091 103.881 194.436C104.199 194.78 104.697 194.953 105.376 194.953C106.274 194.953 106.929 194.707 107.341 194.217C107.759 193.726 107.967 192.925 107.967 191.813V187.304H109.267V195.884H108.194L108.007 194.733H107.936C107.67 195.156 107.299 195.48 106.824 195.704C106.355 195.929 105.817 196.041 105.212 196.041C104.168 196.041 103.385 195.793 102.863 195.297C102.346 194.801 102.088 194.008 102.088 192.917V187.304H103.403Z" fill="white"/>
<path d="M117.341 195.884V190.334C117.341 189.634 117.182 189.112 116.864 188.768C116.545 188.423 116.047 188.251 115.368 188.251C114.471 188.251 113.813 188.494 113.395 188.979C112.978 189.465 112.769 190.266 112.769 191.383V195.884H111.469V187.304H112.526L112.738 188.478H112.8C113.067 188.055 113.44 187.729 113.92 187.499C114.4 187.265 114.935 187.147 115.525 187.147C116.558 187.147 117.336 187.398 117.858 187.899C118.38 188.395 118.641 189.19 118.641 190.287V195.884H117.341Z" fill="white"/>
<path d="M124.186 196.041C122.944 196.041 121.981 195.66 121.297 194.898C120.619 194.131 120.28 193.048 120.28 191.649C120.28 190.213 120.624 189.104 121.313 188.321C122.007 187.539 122.994 187.147 124.272 187.147C124.685 187.147 125.097 187.191 125.509 187.28C125.922 187.369 126.245 187.473 126.48 187.593L126.081 188.697C125.794 188.582 125.481 188.488 125.141 188.415C124.802 188.337 124.502 188.298 124.241 188.298C122.498 188.298 121.626 189.41 121.626 191.633C121.626 192.687 121.838 193.496 122.26 194.06C122.688 194.624 123.32 194.906 124.155 194.906C124.87 194.906 125.603 194.752 126.355 194.444V195.595C125.781 195.892 125.058 196.041 124.186 196.041Z" fill="white"/>
<path d="M129.137 195.884H127.837V187.304H129.137V195.884ZM127.728 184.978C127.728 184.681 127.801 184.464 127.947 184.329C128.093 184.188 128.276 184.117 128.495 184.117C128.704 184.117 128.884 184.188 129.035 184.329C129.186 184.47 129.262 184.686 129.262 184.978C129.262 185.271 129.186 185.49 129.035 185.636C128.884 185.777 128.704 185.847 128.495 185.847C128.276 185.847 128.093 185.777 127.947 185.636C127.801 185.49 127.728 185.271 127.728 184.978Z" fill="white"/>
<path d="M132.631 195.884H131.331V183.702H132.631V195.884Z" fill="white"/>
<path d="M63.8475 161.244H65.339V199.651H63.8475V161.244Z" fill="white"/>
<path d="M139.363 123.587C137.28 123.587 135.631 124.115 133.895 124.995C133.895 119.981 133.982 115.671 134.069 114L123.915 116.023V116.991L124.87 117.079C126.258 117.254 126.866 118.134 126.953 119.981C127.3 123.675 127.213 143.29 126.953 146.457C129.643 147.072 132.594 147.512 135.544 147.512C143.615 147.512 148.389 142.498 148.389 134.494C148.562 128.161 144.57 123.587 139.363 123.587ZM135.805 145.929C135.197 145.929 134.503 145.841 134.069 145.753C133.895 143.554 133.809 134.494 133.809 126.49C134.763 126.138 135.371 126.138 136.152 126.138C139.45 126.138 141.359 130.008 141.359 134.934C141.446 141.179 139.103 145.929 135.805 145.929ZM85.8166 123.851L84.2544 124.291C82.8659 119.629 80.6962 116.991 76.6173 116.991H71.3235C71.0631 119.981 70.9763 124.907 70.9763 130.096L74.5345 130.008C76.8777 129.92 77.8323 128.161 78.4398 125.523H79.7416V136.429H78.4398C77.8323 133.791 76.8777 132.031 74.5345 131.943L70.9763 131.856C70.9763 135.814 71.1499 139.068 71.2367 141.091C71.497 143.994 72.2781 145.313 74.2742 145.577L76.0967 145.753V147.072H59V145.753L60.3886 145.577C62.3846 145.313 63.1657 143.994 63.426 141.091C63.86 136.341 63.86 126.314 63.426 120.773C63.1657 117.87 62.3846 116.551 60.3886 116.287L59 116.111V114.792H85.643L85.8166 123.851ZM94.3215 123.324C101.872 123.324 105.69 128.513 105.69 135.374C105.69 142.059 101.438 147.512 93.8876 147.512C86.3373 147.512 82.5187 142.322 82.5187 135.462C82.5187 128.777 86.7712 123.324 94.3215 123.324ZM93.9743 124.819C90.5897 124.819 89.7219 129.393 89.7219 135.462C89.7219 141.355 91.1972 146.105 94.3215 146.105C97.7061 146.105 98.574 141.531 98.574 135.462C98.574 129.569 97.0986 124.819 93.9743 124.819ZM150.385 135.638C150.385 129.305 154.29 123.324 162.101 123.324C168.436 123.324 171.473 128.073 171.473 134.318H157.327C157.154 139.948 160.018 144.17 165.398 144.17C167.742 144.17 169.043 143.554 170.519 142.498L171.213 143.29C169.651 145.489 166.353 147.6 162.014 147.6C155.245 147.6 150.385 142.674 150.385 135.638ZM157.414 132.735L164.531 132.559C164.531 129.393 164.097 124.819 161.493 124.819C158.976 124.819 157.501 129.129 157.414 132.735ZM189.785 130.448L188.657 130.712C187.442 126.666 185.533 124.907 182.842 124.907C181.02 124.907 179.718 126.314 179.718 128.337C179.718 130.36 181.193 131.416 185.446 133.087C189.438 134.67 191 136.429 191 139.684C191 144.521 187.355 147.512 181.28 147.512C178.416 147.512 175.205 146.896 173.296 146.105L173.122 139.42L174.25 139.156C175.899 143.818 178.069 145.577 180.933 145.577C183.363 145.577 184.665 143.818 184.665 141.971C184.665 140.124 183.623 139.068 179.805 137.661C176.247 136.341 173.643 134.758 173.643 130.712C173.643 126.754 177.114 123.412 182.755 123.412C185.359 123.412 187.876 123.851 189.611 124.643L189.785 130.448ZM122.961 130.272C119.923 128.161 116.625 129.129 115.931 130.272C115.671 134.054 115.757 139.772 116.018 142.674C116.191 144.609 116.712 145.401 118.101 145.577L119.923 145.665V146.984H105.864V145.753L106.819 145.665C108.207 145.489 108.815 144.609 108.901 142.762C109.162 139.596 109.249 133.087 108.901 129.393C108.728 127.458 108.207 126.666 106.819 126.402L105.864 126.314V125.347L115.931 123.324L115.844 128.689C118.187 123.148 122.874 122.444 125.391 124.027L122.961 130.272Z" fill="white"/>
</svg>
